# xmcd
#
# Track frame offsets: 
#        182
#        24985
#        47140
#        79612
#        100925
#        117350
#        139335
#        166325
#        188217
#        216352
#        243335
#        263367
#
# Disc length: 3770 seconds
#
# Revision: 7
# Processed by: cddbd v1.5.2PL0 Copyright (c) Steve Scherf et al.
# Submitted via: ExactAudioCopyFreeDBPlugin 1.0
#
DISCID=9e0eb80c
DTITLE=Various Artist - Smooth Grooves:  A Sensual Collection [Rhino]
DYEAR=1996
DGENRE=SMB
TTITLE0=Teddy Pendergrass and Stephanie Mills - Feel the Fire
TTITLE1=Earth, Wind and Fire - Devotion (live)
TTITLE2=The Spinners - Love Don't Love Nobody
TTITLE3=GQ - I Do Love You
TTITLE4=Skyy - When You Touch Me
TTITLE5=Rockie Robbins - You and Me
TTITLE6=Grover Washington, Jr. - Best is Yet to Come (ft Patti LaBelle
TTITLE6=)
TTITLE7=Shirley Murdock - Go on Without You
TTITLE8=One Way - Something in the Past (ft Al Hudson)
TTITLE9=Bootsy's Rubber Band - What's a Telephone Bill
TTITLE10=New Birth - Dream Merchant
TTITLE11=The Manhattans - Wish That You Were Mine
EXTD=
EXTT0=
EXTT1=
EXTT2=
EXTT3=
EXTT4=
EXTT5=
EXTT6=
EXTT7=
EXTT8=
EXTT9=
EXTT10=
EXTT11=
PLAYORDER=
